<?xml version="1.0" encoding="utf-8"?>
<!-- Generator: Adobe Illustrator 19.0.0, SVG Export Plug-In . SVG Version: 6.00 Build 0)  -->
<svg version="1.1" xmlns="http://www.w3.org/2000/svg" xmlns:xlink="http://www.w3.org/1999/xlink" x="0px" y="0px"
	 viewBox="0 0 595.3 234.8" style="enable-background:new 0 0 595.3 234.8;" xml:space="preserve">
<style type="text/css">
	.st0{fill:#FFFFFF;}
	.st1{fill:#FFFFFF;stroke:#FFFFFF;stroke-miterlimit:10;}
</style>
<g id="tipi-logo">
	<path class="st0" d="M107.1,47.2c-1.6,0.2-2.9,0.4-4.2,0.5c-1-2.9-1.8-6-3.2-8.7c-2.5-4.7-0.8-8.4,1.9-12.5
		c1.8,4.5,3.5,8.5,5.1,12.6c0,0-0.1,0.2-0.1,0.2c0,0,0.1,0,0.1-0.1c0,0.1,0,0.2,0,0.3c0,0,0,0,0-0.1C106.9,41.6,106.8,45,107.1,47.2
		c8.7-1.9,10.4-5,11.9-14.6c-4.2,2.3-8.2,4.5-12.2,6.6c0,0,0-0.1,0-0.1c0,0,0,0,0,0c0,0,0,0,0,0c0,0,0,0,0,0
		c0.5-7.8,1-15.5,1.7-24.5C49.2,71.4,17.4,139.7,10.5,220.3c23.7-7.8,47.1-12.4,71.1-14.4c24-2.1,47.9-1,72.6,2.5
		C123.3,158.6,108,105,107.1,47.2z M85.5,194.5c-3.1-0.2-4.6-1.4-5.2-4.2c-1.8-9.9-3.7-19.9-5.3-29.9c-0.5-2.9-0.1-5.9-0.1-10.3
		c-3.5,4-6.5,7-9.1,10.3c-6.9,8.7-12,18.4-15.1,29.1c-0.8,2.8-2.1,3.9-5.1,4.1c-9.6,0.5-19.2,1.4-29.5,2.1c1.2-4.5,2.3-8.8,3.5-13
		C35.3,131,63,86.7,101.3,48.9c0.4-0.4,1-0.7,1.5-1c-0.5,8.4-1.2,16.8-1.3,25.2c-0.6,42.1,6.8,82.8,22.6,121.9
		c0.6,1.5,1.2,3.1,2.1,5.4c-7-1.2-13.4-2.4-19.8-3.3C99.4,196,92.5,195,85.5,194.5z"/>
</g>
<g id="bottom_x5F_text">
	<g>
		<path class="st1" d="M161,161.5c-2.4-0.5-4.3-1.3-5.7-2.2c-1.4-0.9-2.1-2.1-2.1-3.4c0-1.3,0.7-2.4,2.1-3.4c1.4-0.9,3.1-1.4,5-1.4
			c2,0,3.6,0.5,5,1.4c0.8,0.5,1.3,1.1,1.6,1.7l-1.7,0.5c-0.3-0.5-0.7-0.9-1.2-1.3c-1-0.7-2.2-1-3.7-1c-1.4,0-2.7,0.3-3.7,1
			c-1,0.7-1.5,1.5-1.5,2.5c0,1,0.5,1.8,1.5,2.5c0.9,0.6,2.3,1.2,3.9,1.7c2.7,0.6,4.9,1.5,6.8,2.7c1.9,1.3,2.9,2.9,2.9,4.7
			c0,1.9-1,3.4-2.9,4.8c-1.9,1.3-4.3,2-7,2c-2.7,0-5.1-0.7-7-2c-1.6-1-2.5-2.3-2.8-3.7l1.8-0.4c0.2,1.2,1,2.3,2.3,3.2
			c1.6,1.1,3.5,1.6,5.7,1.6c2.2,0,4.1-0.5,5.7-1.6s2.4-2.4,2.4-3.9c0-1.5-0.8-2.8-2.4-3.9C164.7,162.8,163,162.1,161,161.5z"/>
		<path class="st1" d="M203.4,154.5c3.4,2.3,5,5,5,8.2c0,3.2-1.7,6-5,8.2c-3.4,2.3-7.4,3.4-12.2,3.4c-4.8,0-8.8-1.1-12.2-3.4
			s-5-5-5-8.2c0-3.2,1.7-6,5-8.2s7.4-3.4,12.2-3.4C195.9,151.1,200,152.2,203.4,154.5z M191.2,152.4c-4.2,0-7.8,1-10.8,3
			c-3,2-4.5,4.5-4.5,7.3s1.5,5.3,4.5,7.3c3,2,6.6,3,10.8,3c4.2,0,7.8-1,10.8-3s4.5-4.5,4.5-7.3s-1.5-5.3-4.5-7.3
			S195.4,152.4,191.2,152.4z"/>
		<path class="st1" d="M214.2,174v-22.7h1.9v21.4h13v1.3H214.2z"/>
		<path class="st1" d="M253.3,151.4h1.9v16.3c-0.3,1.7-1.4,3.2-3.2,4.4c-2.1,1.4-4.7,2.2-7.7,2.2c-3,0-5.6-0.7-7.8-2.2
			c-2.1-1.4-3.2-3.2-3.2-5.2v-15.5h1.9v15.5c0,1.7,0.9,3.1,2.7,4.3c1.8,1.2,3.9,1.8,6.4,1.8s4.6-0.6,6.4-1.8
			c1.8-1.2,2.6-2.6,2.6-4.3V151.4z"/>
		<path class="st1" d="M269.8,152.7V174h-1.9v-21.4h-8.5v-1.3h18.9v1.3H269.8z"/>
		<path class="st1" d="M284.8,151.4V174h-1.9v-22.7H284.8z"/>
		<path class="st1" d="M320.3,154.5c3.4,2.3,5,5,5,8.2c0,3.2-1.7,6-5,8.2c-3.4,2.3-7.4,3.4-12.2,3.4c-4.7,0-8.8-1.1-12.2-3.4
			c-3.4-2.3-5-5-5-8.2c0-3.2,1.7-6,5-8.2c3.4-2.3,7.4-3.4,12.2-3.4C312.9,151.1,316.9,152.2,320.3,154.5z M308.1,152.4
			c-4.2,0-7.8,1-10.8,3c-3,2-4.5,4.5-4.5,7.3s1.5,5.3,4.5,7.3c3,2,6.6,3,10.8,3s7.8-1,10.8-3s4.5-4.5,4.5-7.3s-1.5-5.3-4.5-7.3
			S312.4,152.4,308.1,152.4z"/>
		<path class="st1" d="M331.1,151.4h2.1l17.2,20.2v-20.2h1.9V174h-1.9L333,153.7V174h-1.9V151.4z"/>
		<path class="st1" d="M366.9,161.5c-2.4-0.5-4.3-1.3-5.7-2.2c-1.4-0.9-2.1-2.1-2.1-3.4c0-1.3,0.7-2.4,2.1-3.4
			c1.4-0.9,3.1-1.4,5-1.4c2,0,3.6,0.5,5,1.4c0.8,0.5,1.3,1.1,1.6,1.7l-1.7,0.5c-0.3-0.5-0.7-0.9-1.2-1.3c-1-0.7-2.2-1-3.7-1
			c-1.4,0-2.7,0.3-3.7,1c-1,0.7-1.5,1.5-1.5,2.5c0,1,0.5,1.8,1.5,2.5c1,0.6,2.3,1.2,3.9,1.7c2.7,0.6,4.9,1.5,6.8,2.7
			c1.9,1.3,2.9,2.9,2.9,4.7c0,1.9-1,3.4-2.9,4.8c-1.9,1.3-4.3,2-7,2c-2.7,0-5.1-0.7-7-2c-1.6-1-2.5-2.3-2.8-3.7l1.8-0.4
			c0.2,1.2,1,2.3,2.3,3.2c1.6,1.1,3.5,1.6,5.7,1.6c2.2,0,4.1-0.5,5.7-1.6c1.6-1.1,2.4-2.4,2.4-3.9c0-1.5-0.8-2.8-2.4-3.9
			C370.6,162.8,368.9,162.1,366.9,161.5z"/>
		<path class="st1" d="M397.1,151.4h0.1c5.5,0,9.8,1,12.8,3.1c3.4,2.3,5,5,5,8.2c0,3.2-1.7,6-5,8.2c-3,2.1-7.3,3.1-12.8,3.1h-0.1v0
			h-1.9v-22.7L397.1,151.4L397.1,151.4z M397.1,152.7v20h0.1c5,0,8.8-0.9,11.5-2.7c3-2,4.5-4.4,4.5-7.3c0-2.8-1.5-5.3-4.5-7.3
			c-2.7-1.8-6.5-2.7-11.5-2.7H397.1z"/>
		<path class="st1" d="M422.7,151.4V174h-1.9v-22.7H422.7z"/>
		<path class="st1" d="M457.4,171.2c-3.2,2.1-7,3.1-11.4,3.1c-4.8,0-8.8-1.1-12.1-3.4c-3.3-2.3-5-5-5-8.2c0-3.2,1.7-5.9,5-8.2
			s7.4-3.4,12.1-3.4c4.4,0,8.3,1,11.5,3l-1.4,0.9c-2.9-1.7-6.3-2.6-10.1-2.6c-4.2,0-7.8,1-10.8,3s-4.5,4.4-4.5,7.3
			c0,2.9,1.5,5.3,4.5,7.3s6.6,3,10.8,3c3.6,0,6.8-0.8,9.5-2.3v-6.9h1.9V171.2z"/>
		<path class="st1" d="M465.6,151.4V174h-1.9v-22.7H465.6z"/>
		<path class="st1" d="M480.6,152.7V174h-1.9v-21.4h-8.5v-1.3h18.9v1.3H480.6z"/>
		<path class="st1" d="M508,165.4h-11.6l-4.7,8.7h-2l12.5-23.2l12.5,23.2h-2L508,165.4z M507.3,164.1l-5.1-9.5l-5.1,9.5H507.3z"/>
		<path class="st1" d="M518.8,174v-22.7h1.9v21.4h13v1.3H518.8z"/>
		<path class="st1" d="M555.5,151.4v1.3h-14.9v9.4h14.9v1.3h-14.9v9.4h14.9v1.3h-16.8v-22.7H555.5z"/>
		<path class="st1" d="M569.6,161.5c-2.4-0.5-4.3-1.3-5.7-2.2c-1.4-0.9-2.1-2.1-2.1-3.4c0-1.3,0.7-2.4,2.1-3.4
			c1.4-0.9,3.1-1.4,5-1.4c2,0,3.6,0.5,5,1.4c0.8,0.5,1.3,1.1,1.6,1.7l-1.7,0.5c-0.3-0.5-0.7-0.9-1.2-1.3c-1-0.7-2.2-1-3.7-1
			c-1.4,0-2.7,0.3-3.7,1c-1,0.7-1.5,1.5-1.5,2.5c0,1,0.5,1.8,1.5,2.5c1,0.6,2.3,1.2,3.9,1.7c2.7,0.6,4.9,1.5,6.8,2.7
			c1.9,1.3,2.9,2.9,2.9,4.7c0,1.9-1,3.4-2.9,4.8c-1.9,1.3-4.3,2-7,2c-2.7,0-5.1-0.7-7-2c-1.6-1-2.5-2.3-2.8-3.7l1.8-0.4
			c0.2,1.2,1,2.3,2.3,3.2c1.6,1.1,3.5,1.6,5.7,1.6c2.2,0,4.1-0.5,5.7-1.6c1.6-1.1,2.4-2.4,2.4-3.9c0-1.5-0.8-2.8-2.4-3.9
			C573.3,162.8,571.6,162.1,569.6,161.5z"/>
	</g>
</g>
<g id="TIPIKALL">
	<g>
		<path class="st0" d="M170.7,61.3v69.5h-16.2V73.4h-23.2V61.3H170.7z M173,61.3h20.8v12.1h-13.9L173,61.3z"/>
		<path class="st0" d="M217,61.3v69.5h-16.4V61.3H217z"/>
		<path class="st0" d="M271.2,63.3c3.4,1.3,6.3,3,8.9,5.3c2.5,2.2,4.6,4.8,6,7.8c1.5,3,2.2,6.2,2.2,9.5s-0.7,6.6-2.2,9.5
			c-1.5,3-3.5,5.6-6,7.7c-2.5,2.2-5.5,3.9-8.9,5.2s-7,1.9-10.8,1.9h-8.8l-8.5-13.9h17.3c1.6,0,3.2-0.3,4.7-0.8
			c1.5-0.6,2.7-1.4,3.8-2.4c1-1,1.9-2.3,2.5-3.7c0.6-1.4,1-3,1-4.7c0-1.5-0.3-2.9-1-4.2c-0.6-1.4-1.5-2.6-2.5-3.6
			c-1.1-1.1-2.3-1.9-3.8-2.6c-1.5-0.7-3-1-4.7-1h-19.9v57.5h-15.6V61.3h35.5C264.2,61.3,267.8,62,271.2,63.3z"/>
		<path class="st0" d="M311.4,61.3v69.5H295V61.3H311.4z"/>
		<path class="st0" d="M382.3,61.3l-46.6,53.3v16.2h-16.4V61.3h16.4v30.5l26.4-30.5H382.3z M347.2,113.6l6.4-15.6l28.7,32.9h-20.1
			L347.2,113.6z"/>
		<path class="st0" d="M441.1,118.5h-36l-6,12.3h-16.9l32.3-69.5h17l-20.8,44.8h24.6l-11.1-23.8l12.7-9.6l26.9,58.2h-16.9
			L441.1,118.5z"/>
		<path class="st0" d="M467.9,130.9V61.3h15.7v69.5H467.9z M486,117h34.6v13.9h-25.9L486,117z"/>
		<path class="st0" d="M526.2,130.9V61.3H542v69.5H526.2z M544.3,117H579v13.9h-25.9L544.3,117z"/>
	</g>
</g>
</svg>
